solid OpenSCAD_Model
  facet normal 0 0.104528 -0.994522
    outer loop
      vertex 1.11022e-16 0 -0.5025
      vertex 0.015 0.103956 -0.491574
      vertex 0.015 0 -0.5025
    endloop
  endfacet
  facet normal 0 0.104528 -0.994522
    outer loop
      vertex 0.015 0.103956 -0.491574
      vertex 1.11022e-16 0 -0.5025
      vertex 1.08596e-16 0.103956 -0.491574
    endloop
  endfacet
  facet normal 0 0.309017 -0.951057
    outer loop
      vertex 1.08596e-16 0.103956 -0.491574
      vertex 0.015 0.203368 -0.459273
      vertex 0.015 0.103956 -0.491574
    endloop
  endfacet
  facet normal 0 0.309017 -0.951057
    outer loop
      vertex 0.015 0.203368 -0.459273
      vertex 1.08596e-16 0.103956 -0.491574
      vertex 1.01424e-16 0.203368 -0.459273
    endloop
  endfacet
  facet normal 0 0.5 -0.866025
    outer loop
      vertex 1.01424e-16 0.203368 -0.459273
      vertex 0.015 0.293893 -0.407008
      vertex 0.015 0.203368 -0.459273
    endloop
  endfacet
  facet normal 0 0.5 -0.866025
    outer loop
      vertex 0.015 0.293893 -0.407008
      vertex 1.01424e-16 0.203368 -0.459273
      vertex 8.98189e-17 0.293893 -0.407008
    endloop
  endfacet
  facet normal 0 0.669131 -0.743145
    outer loop
      vertex 8.98189e-17 0.293893 -0.407008
      vertex 0.015 0.371572 -0.337065
      vertex 0.015 0.293893 -0.407008
    endloop
  endfacet
  facet normal 0 0.669131 -0.743145
    outer loop
      vertex 0.015 0.371572 -0.337065
      vertex 8.98189e-17 0.293893 -0.407008
      vertex 7.42884e-17 0.371572 -0.337065
    endloop
  endfacet
  facet normal 0 0.809017 -0.587785
    outer loop
      vertex 0.015 0.371572 -0.337065
      vertex 5.55112e-17 0.433013 -0.2525
      vertex 0.015 0.433013 -0.2525
    endloop
  endfacet
  facet normal 0 0.809017 -0.587785
    outer loop
      vertex 5.55112e-17 0.433013 -0.2525
      vertex 0.015 0.371572 -0.337065
      vertex 7.42884e-17 0.371572 -0.337065
    endloop
  endfacet
  facet normal 0 0.913545 -0.406737
    outer loop
      vertex 0.015 0.433013 -0.2525
      vertex 3.43078e-17 0.475528 -0.157008
      vertex 0.015 0.475528 -0.157008
    endloop
  endfacet
  facet normal 0 0.913545 -0.406737
    outer loop
      vertex 3.43078e-17 0.475528 -0.157008
      vertex 0.015 0.433013 -0.2525
      vertex 5.55112e-17 0.433013 -0.2525
    endloop
  endfacet
  facet normal 0 0.978148 -0.207912
    outer loop
      vertex 0.015 0.475528 -0.157008
      vertex 1.1605e-17 0.497261 -0.0547642
      vertex 0.015 0.497261 -0.0547642
    endloop
  endfacet
  facet normal 0 0.978148 -0.207912
    outer loop
      vertex 1.1605e-17 0.497261 -0.0547642
      vertex 0.015 0.475528 -0.157008
      vertex 3.43078e-17 0.475528 -0.157008
    endloop
  endfacet
  facet normal 0 1 -0
    outer loop
      vertex 0.015 0.497261 -0.0547642
      vertex -1.1605e-17 0.497261 0.0497642
      vertex 0.015 0.497261 0.0497642
    endloop
  endfacet
  facet normal 0 1 0
    outer loop
      vertex -1.1605e-17 0.497261 0.0497642
      vertex 0.015 0.497261 -0.0547642
      vertex 1.1605e-17 0.497261 -0.0547642
    endloop
  endfacet
  facet normal 0 0.978148 0.207912
    outer loop
      vertex 0.015 0.497261 0.0497642
      vertex -3.43078e-17 0.475528 0.152009
      vertex 0.015 0.475528 0.152009
    endloop
  endfacet
  facet normal 0 0.978148 0.207912
    outer loop
      vertex -3.43078e-17 0.475528 0.152009
      vertex 0.015 0.497261 0.0497642
      vertex -1.1605e-17 0.497261 0.0497642
    endloop
  endfacet
  facet normal 0 0.913545 0.406737
    outer loop
      vertex 0.015 0.475528 0.152009
      vertex -5.55112e-17 0.433013 0.2475
      vertex 0.015 0.433013 0.2475
    endloop
  endfacet
  facet normal 0 0.913545 0.406737
    outer loop
      vertex -5.55112e-17 0.433013 0.2475
      vertex 0.015 0.475528 0.152009
      vertex -3.43078e-17 0.475528 0.152009
    endloop
  endfacet
  facet normal 0 0.809017 0.587785
    outer loop
      vertex 0.015 0.433013 0.2475
      vertex -7.42884e-17 0.371572 0.332065
      vertex 0.015 0.371572 0.332065
    endloop
  endfacet
  facet normal 0 0.809017 0.587785
    outer loop
      vertex -7.42884e-17 0.371572 0.332065
      vertex 0.015 0.433013 0.2475
      vertex -5.55112e-17 0.433013 0.2475
    endloop
  endfacet
  facet normal -0 0.669131 0.743145
    outer loop
      vertex -7.42884e-17 0.371572 0.332065
      vertex 0.015 0.293893 0.402009
      vertex 0.015 0.371572 0.332065
    endloop
  endfacet
  facet normal 0 0.669131 0.743145
    outer loop
      vertex 0.015 0.293893 0.402009
      vertex -7.42884e-17 0.371572 0.332065
      vertex -8.98189e-17 0.293893 0.402009
    endloop
  endfacet
  facet normal -0 0.5 0.866025
    outer loop
      vertex -8.98189e-17 0.293893 0.402009
      vertex 0.015 0.203368 0.454273
      vertex 0.015 0.293893 0.402009
    endloop
  endfacet
  facet normal 0 0.5 0.866025
    outer loop
      vertex 0.015 0.203368 0.454273
      vertex -8.98189e-17 0.293893 0.402009
      vertex -1.01424e-16 0.203368 0.454273
    endloop
  endfacet
  facet normal -0 0.309017 0.951057
    outer loop
      vertex -1.01424e-16 0.203368 0.454273
      vertex 0.015 0.103956 0.486574
      vertex 0.015 0.203368 0.454273
    endloop
  endfacet
  facet normal 0 0.309017 0.951057
    outer loop
      vertex 0.015 0.103956 0.486574
      vertex -1.01424e-16 0.203368 0.454273
      vertex -1.08596e-16 0.103956 0.486574
    endloop
  endfacet
  facet normal -0 0.104529 0.994522
    outer loop
      vertex -1.08596e-16 0.103956 0.486574
      vertex 0.015 2.83277e-16 0.4975
      vertex 0.015 0.103956 0.486574
    endloop
  endfacet
  facet normal 0 0.104529 0.994522
    outer loop
      vertex 0.015 2.83277e-16 0.4975
      vertex -1.08596e-16 0.103956 0.486574
      vertex -1.11022e-16 2.83277e-16 0.4975
    endloop
  endfacet
  facet normal 0 -0.104529 0.994522
    outer loop
      vertex 0.015 2.83277e-16 0.4975
      vertex -1.08596e-16 -0.103956 0.486574
      vertex 0.015 -0.103956 0.486574
    endloop
  endfacet
  facet normal 0 -0.104529 0.994522
    outer loop
      vertex -1.08596e-16 -0.103956 0.486574
      vertex 0.015 2.83277e-16 0.4975
      vertex -1.11022e-16 2.83277e-16 0.4975
    endloop
  endfacet
  facet normal 0 -0.309017 0.951057
    outer loop
      vertex 0.015 -0.103956 0.486574
      vertex -1.01424e-16 -0.203368 0.454273
      vertex 0.015 -0.203368 0.454273
    endloop
  endfacet
  facet normal 0 -0.309017 0.951057
    outer loop
      vertex -1.01424e-16 -0.203368 0.454273
      vertex 0.015 -0.103956 0.486574
      vertex -1.08596e-16 -0.103956 0.486574
    endloop
  endfacet
  facet normal 0 -0.5 0.866025
    outer loop
      vertex 0.015 -0.203368 0.454273
      vertex -8.98189e-17 -0.293893 0.402009
      vertex 0.015 -0.293893 0.402009
    endloop
  endfacet
  facet normal 0 -0.5 0.866025
    outer loop
      vertex -8.98189e-17 -0.293893 0.402009
      vertex 0.015 -0.203368 0.454273
      vertex -1.01424e-16 -0.203368 0.454273
    endloop
  endfacet
  facet normal 0 -0.669131 0.743145
    outer loop
      vertex 0.015 -0.293893 0.402009
      vertex -7.42884e-17 -0.371572 0.332065
      vertex 0.015 -0.371572 0.332065
    endloop
  endfacet
  facet normal 0 -0.669131 0.743145
    outer loop
      vertex -7.42884e-17 -0.371572 0.332065
      vertex 0.015 -0.293893 0.402009
      vertex -8.98189e-17 -0.293893 0.402009
    endloop
  endfacet
  facet normal 0 -0.809017 0.587785
    outer loop
      vertex -5.55112e-17 -0.433013 0.2475
      vertex 0.015 -0.371572 0.332065
      vertex -7.42884e-17 -0.371572 0.332065
    endloop
  endfacet
  facet normal 0 -0.809017 0.587785
    outer loop
      vertex 0.015 -0.371572 0.332065
      vertex -5.55112e-17 -0.433013 0.2475
      vertex 0.015 -0.433013 0.2475
    endloop
  endfacet
  facet normal 0 -0.913545 0.406737
    outer loop
      vertex -3.43078e-17 -0.475528 0.152009
      vertex 0.015 -0.433013 0.2475
      vertex -5.55112e-17 -0.433013 0.2475
    endloop
  endfacet
  facet normal 0 -0.913545 0.406737
    outer loop
      vertex 0.015 -0.433013 0.2475
      vertex -3.43078e-17 -0.475528 0.152009
      vertex 0.015 -0.475528 0.152009
    endloop
  endfacet
  facet normal 0 -0.978148 0.207912
    outer loop
      vertex -1.1605e-17 -0.497261 0.0497642
      vertex 0.015 -0.475528 0.152009
      vertex -3.43078e-17 -0.475528 0.152009
    endloop
  endfacet
  facet normal 0 -0.978148 0.207912
    outer loop
      vertex 0.015 -0.475528 0.152009
      vertex -1.1605e-17 -0.497261 0.0497642
      vertex 0.015 -0.497261 0.0497642
    endloop
  endfacet
  facet normal 0 -1 0
    outer loop
      vertex 1.1605e-17 -0.497261 -0.0547642
      vertex 0.015 -0.497261 0.0497642
      vertex -1.1605e-17 -0.497261 0.0497642
    endloop
  endfacet
  facet normal 0 -1 -0
    outer loop
      vertex 0.015 -0.497261 0.0497642
      vertex 1.1605e-17 -0.497261 -0.0547642
      vertex 0.015 -0.497261 -0.0547642
    endloop
  endfacet
  facet normal 0 -0.978148 -0.207912
    outer loop
      vertex 3.43078e-17 -0.475528 -0.157008
      vertex 0.015 -0.497261 -0.0547642
      vertex 1.1605e-17 -0.497261 -0.0547642
    endloop
  endfacet
  facet normal 0 -0.978148 -0.207912
    outer loop
      vertex 0.015 -0.497261 -0.0547642
      vertex 3.43078e-17 -0.475528 -0.157008
      vertex 0.015 -0.475528 -0.157008
    endloop
  endfacet
  facet normal 0 -0.913545 -0.406737
    outer loop
      vertex 5.55112e-17 -0.433013 -0.2525
      vertex 0.015 -0.475528 -0.157008
      vertex 3.43078e-17 -0.475528 -0.157008
    endloop
  endfacet
  facet normal 0 -0.913545 -0.406737
    outer loop
      vertex 0.015 -0.475528 -0.157008
      vertex 5.55112e-17 -0.433013 -0.2525
      vertex 0.015 -0.433013 -0.2525
    endloop
  endfacet
  facet normal 0 -0.809017 -0.587785
    outer loop
      vertex 7.42884e-17 -0.371572 -0.337065
      vertex 0.015 -0.433013 -0.2525
      vertex 5.55112e-17 -0.433013 -0.2525
    endloop
  endfacet
  facet normal 0 -0.809017 -0.587785
    outer loop
      vertex 0.015 -0.433013 -0.2525
      vertex 7.42884e-17 -0.371572 -0.337065
      vertex 0.015 -0.371572 -0.337065
    endloop
  endfacet
  facet normal 0 -0.669131 -0.743145
    outer loop
      vertex 0.015 -0.371572 -0.337065
      vertex 8.98189e-17 -0.293893 -0.407008
      vertex 0.015 -0.293893 -0.407008
    endloop
  endfacet
  facet normal 0 -0.669131 -0.743145
    outer loop
      vertex 8.98189e-17 -0.293893 -0.407008
      vertex 0.015 -0.371572 -0.337065
      vertex 7.42884e-17 -0.371572 -0.337065
    endloop
  endfacet
  facet normal 0 -0.5 -0.866025
    outer loop
      vertex 0.015 -0.293893 -0.407008
      vertex 1.01424e-16 -0.203368 -0.459273
      vertex 0.015 -0.203368 -0.459273
    endloop
  endfacet
  facet normal 0 -0.5 -0.866025
    outer loop
      vertex 1.01424e-16 -0.203368 -0.459273
      vertex 0.015 -0.293893 -0.407008
      vertex 8.98189e-17 -0.293893 -0.407008
    endloop
  endfacet
  facet normal 0 -0.309017 -0.951057
    outer loop
      vertex 0.015 -0.203368 -0.459273
      vertex 1.08596e-16 -0.103956 -0.491574
      vertex 0.015 -0.103956 -0.491574
    endloop
  endfacet
  facet normal 0 -0.309017 -0.951057
    outer loop
      vertex 1.08596e-16 -0.103956 -0.491574
      vertex 0.015 -0.203368 -0.459273
      vertex 1.01424e-16 -0.203368 -0.459273
    endloop
  endfacet
  facet normal 0 -0.104528 -0.994522
    outer loop
      vertex 0.015 -0.103956 -0.491574
      vertex 1.11022e-16 0 -0.5025
      vertex 0.015 0 -0.5025
    endloop
  endfacet
  facet normal 0 -0.104528 -0.994522
    outer loop
      vertex 1.11022e-16 0 -0.5025
      vertex 0.015 -0.103956 -0.491574
      vertex 1.08596e-16 -0.103956 -0.491574
    endloop
  endfacet
  facet normal -1 3.72299e-23 -2.22045e-16
    outer loop
      vertex 3.43078e-17 0.475528 -0.157008
      vertex -1.1605e-17 0.497261 0.0497642
      vertex 1.1605e-17 0.497261 -0.0547642
    endloop
  endfacet
  facet normal -1 -3.80616e-23 -2.22045e-16
    outer loop
      vertex 3.43078e-17 0.475528 -0.157008
      vertex -3.43078e-17 0.475528 0.152009
      vertex -1.1605e-17 0.497261 0.0497642
    endloop
  endfacet
  facet normal -1 0 -2.22045e-16
    outer loop
      vertex 5.55112e-17 0.433013 -0.2525
      vertex -3.43078e-17 0.475528 0.152009
      vertex 3.43078e-17 0.475528 -0.157008
    endloop
  endfacet
  facet normal -1 0 -2.22045e-16
    outer loop
      vertex 5.55112e-17 0.433013 -0.2525
      vertex -5.55112e-17 0.433013 0.2475
      vertex -3.43078e-17 0.475528 0.152009
    endloop
  endfacet
  facet normal -1 0 -2.22045e-16
    outer loop
      vertex 7.42884e-17 0.371572 -0.337065
      vertex -5.55112e-17 0.433013 0.2475
      vertex 5.55112e-17 0.433013 -0.2525
    endloop
  endfacet
  facet normal -1 0 -2.22045e-16
    outer loop
      vertex 7.42884e-17 0.371572 -0.337065
      vertex -7.42884e-17 0.371572 0.332065
      vertex -5.55112e-17 0.433013 0.2475
    endloop
  endfacet
  facet normal -1 0 -2.22045e-16
    outer loop
      vertex 8.98189e-17 0.293893 -0.407008
      vertex -7.42884e-17 0.371572 0.332065
      vertex 7.42884e-17 0.371572 -0.337065
    endloop
  endfacet
  facet normal -1 0 -2.22045e-16
    outer loop
      vertex 8.98189e-17 0.293893 -0.407008
      vertex -8.98189e-17 0.293893 0.402009
      vertex -7.42884e-17 0.371572 0.332065
    endloop
  endfacet
  facet normal -1 7.31013e-23 -2.22045e-16
    outer loop
      vertex 1.01424e-16 0.203368 -0.459273
      vertex -8.98189e-17 0.293893 0.402009
      vertex 8.98189e-17 0.293893 -0.407008
    endloop
  endfacet
  facet normal -1 4.18215e-24 -2.22045e-16
    outer loop
      vertex 1.01424e-16 0.203368 -0.459273
      vertex -1.01424e-16 0.203368 0.454273
      vertex -8.98189e-17 0.293893 0.402009
    endloop
  endfacet
  facet normal -1 -6.89192e-23 -2.22045e-16
    outer loop
      vertex 1.08596e-16 0.103956 -0.491574
      vertex -1.01424e-16 0.203368 0.454273
      vertex 1.01424e-16 0.203368 -0.459273
    endloop
  endfacet
  facet normal -1 6.43674e-23 -2.22045e-16
    outer loop
      vertex 1.08596e-16 0.103956 -0.491574
      vertex -1.08596e-16 0.103956 0.486574
      vertex -1.01424e-16 0.203368 0.454273
    endloop
  endfacet
  facet normal -1 -6.43674e-23 -2.22045e-16
    outer loop
      vertex 1.08596e-16 0.103956 -0.491574
      vertex -1.11022e-16 2.83277e-16 0.4975
      vertex -1.08596e-16 0.103956 0.486574
    endloop
  endfacet
  facet normal -1 0 -2.22045e-16
    outer loop
      vertex 1.11022e-16 0 -0.5025
      vertex -1.11022e-16 2.83277e-16 0.4975
      vertex 1.08596e-16 0.103956 -0.491574
    endloop
  endfacet
  facet normal -1 0 -2.22045e-16
    outer loop
      vertex 1.08596e-16 -0.103956 -0.491574
      vertex -1.11022e-16 2.83277e-16 0.4975
      vertex 1.11022e-16 0 -0.5025
    endloop
  endfacet
  facet normal -1 6.43674e-23 -2.22045e-16
    outer loop
      vertex 1.08596e-16 -0.103956 -0.491574
      vertex -1.08596e-16 -0.103956 0.486574
      vertex -1.11022e-16 2.83277e-16 0.4975
    endloop
  endfacet
  facet normal -1 6.43674e-23 -2.22045e-16
    outer loop
      vertex 1.01424e-16 -0.203368 -0.459273
      vertex -1.08596e-16 -0.103956 0.486574
      vertex 1.08596e-16 -0.103956 -0.491574
    endloop
  endfacet
  facet normal -1 -6.89192e-23 -2.22045e-16
    outer loop
      vertex 1.01424e-16 -0.203368 -0.459273
      vertex -1.01424e-16 -0.203368 0.454273
      vertex -1.08596e-16 -0.103956 0.486574
    endloop
  endfacet
  facet normal -1 -6.89192e-23 -2.22045e-16
    outer loop
      vertex 8.98189e-17 -0.293893 -0.407008
      vertex -1.01424e-16 -0.203368 0.454273
      vertex 1.01424e-16 -0.203368 -0.459273
    endloop
  endfacet
  facet normal -1 0 -2.22045e-16
    outer loop
      vertex 8.98189e-17 -0.293893 -0.407008
      vertex -8.98189e-17 -0.293893 0.402009
      vertex -1.01424e-16 -0.203368 0.454273
    endloop
  endfacet
  facet normal -1 0 -2.22045e-16
    outer loop
      vertex 7.42884e-17 -0.371572 -0.337065
      vertex -8.98189e-17 -0.293893 0.402009
      vertex 8.98189e-17 -0.293893 -0.407008
    endloop
  endfacet
  facet normal -1 0 -2.22045e-16
    outer loop
      vertex 7.42884e-17 -0.371572 -0.337065
      vertex -7.42884e-17 -0.371572 0.332065
      vertex -8.98189e-17 -0.293893 0.402009
    endloop
  endfacet
  facet normal -1 0 -2.22045e-16
    outer loop
      vertex 5.55112e-17 -0.433013 -0.2525
      vertex -7.42884e-17 -0.371572 0.332065
      vertex 7.42884e-17 -0.371572 -0.337065
    endloop
  endfacet
  facet normal -1 0 -2.22045e-16
    outer loop
      vertex 5.55112e-17 -0.433013 -0.2525
      vertex -5.55112e-17 -0.433013 0.2475
      vertex -7.42884e-17 -0.371572 0.332065
    endloop
  endfacet
  facet normal -1 0 -2.22045e-16
    outer loop
      vertex 3.43078e-17 -0.475528 -0.157008
      vertex -5.55112e-17 -0.433013 0.2475
      vertex 5.55112e-17 -0.433013 -0.2525
    endloop
  endfacet
  facet normal -1 0 -2.22045e-16
    outer loop
      vertex 3.43078e-17 -0.475528 -0.157008
      vertex -3.43078e-17 -0.475528 0.152009
      vertex -5.55112e-17 -0.433013 0.2475
    endloop
  endfacet
  facet normal -1 0 -2.22045e-16
    outer loop
      vertex 1.1605e-17 -0.497261 -0.0547642
      vertex -3.43078e-17 -0.475528 0.152009
      vertex 3.43078e-17 -0.475528 -0.157008
    endloop
  endfacet
  facet normal -1 7.52914e-23 -2.22045e-16
    outer loop
      vertex -3.43078e-17 -0.475528 0.152009
      vertex 1.1605e-17 -0.497261 -0.0547642
      vertex -1.1605e-17 -0.497261 0.0497642
    endloop
  endfacet
  facet normal 1 0 0
    outer loop
      vertex 0.015 0.475528 0.152009
      vertex 0.015 0.497261 -0.0547642
      vertex 0.015 0.497261 0.0497642
    endloop
  endfacet
  facet normal 1 0 0
    outer loop
      vertex 0.015 0.475528 0.152009
      vertex 0.015 0.475528 -0.157008
      vertex 0.015 0.497261 -0.0547642
    endloop
  endfacet
  facet normal 1 0 0
    outer loop
      vertex 0.015 0.433013 0.2475
      vertex 0.015 0.475528 -0.157008
      vertex 0.015 0.475528 0.152009
    endloop
  endfacet
  facet normal 1 0 0
    outer loop
      vertex 0.015 0.433013 0.2475
      vertex 0.015 0.433013 -0.2525
      vertex 0.015 0.475528 -0.157008
    endloop
  endfacet
  facet normal 1 0 0
    outer loop
      vertex 0.015 0.371572 0.332065
      vertex 0.015 0.433013 -0.2525
      vertex 0.015 0.433013 0.2475
    endloop
  endfacet
  facet normal 1 0 0
    outer loop
      vertex 0.015 0.371572 0.332065
      vertex 0.015 0.371572 -0.337065
      vertex 0.015 0.433013 -0.2525
    endloop
  endfacet
  facet normal 1 0 0
    outer loop
      vertex 0.015 0.293893 0.402009
      vertex 0.015 0.371572 -0.337065
      vertex 0.015 0.371572 0.332065
    endloop
  endfacet
  facet normal 1 0 0
    outer loop
      vertex 0.015 0.293893 0.402009
      vertex 0.015 0.293893 -0.407008
      vertex 0.015 0.371572 -0.337065
    endloop
  endfacet
  facet normal 1 0 0
    outer loop
      vertex 0.015 0.203368 0.454273
      vertex 0.015 0.293893 -0.407008
      vertex 0.015 0.293893 0.402009
    endloop
  endfacet
  facet normal 1 0 0
    outer loop
      vertex 0.015 0.203368 0.454273
      vertex 0.015 0.203368 -0.459273
      vertex 0.015 0.293893 -0.407008
    endloop
  endfacet
  facet normal 1 0 0
    outer loop
      vertex 0.015 0.103956 0.486574
      vertex 0.015 0.203368 -0.459273
      vertex 0.015 0.203368 0.454273
    endloop
  endfacet
  facet normal 1 0 0
    outer loop
      vertex 0.015 0.103956 0.486574
      vertex 0.015 0.103956 -0.491574
      vertex 0.015 0.203368 -0.459273
    endloop
  endfacet
  facet normal 1 0 0
    outer loop
      vertex 0.015 2.83277e-16 0.4975
      vertex 0.015 0.103956 -0.491574
      vertex 0.015 0.103956 0.486574
    endloop
  endfacet
  facet normal 1 0 0
    outer loop
      vertex 0.015 2.83277e-16 0.4975
      vertex 0.015 0 -0.5025
      vertex 0.015 0.103956 -0.491574
    endloop
  endfacet
  facet normal 1 -0 0
    outer loop
      vertex 0.015 -0.103956 0.486574
      vertex 0.015 0 -0.5025
      vertex 0.015 2.83277e-16 0.4975
    endloop
  endfacet
  facet normal 1 0 0
    outer loop
      vertex 0.015 -0.103956 0.486574
      vertex 0.015 -0.103956 -0.491574
      vertex 0.015 0 -0.5025
    endloop
  endfacet
  facet normal 1 -0 0
    outer loop
      vertex 0.015 -0.203368 0.454273
      vertex 0.015 -0.103956 -0.491574
      vertex 0.015 -0.103956 0.486574
    endloop
  endfacet
  facet normal 1 0 0
    outer loop
      vertex 0.015 -0.203368 0.454273
      vertex 0.015 -0.203368 -0.459273
      vertex 0.015 -0.103956 -0.491574
    endloop
  endfacet
  facet normal 1 -0 0
    outer loop
      vertex 0.015 -0.293893 0.402009
      vertex 0.015 -0.203368 -0.459273
      vertex 0.015 -0.203368 0.454273
    endloop
  endfacet
  facet normal 1 0 0
    outer loop
      vertex 0.015 -0.293893 0.402009
      vertex 0.015 -0.293893 -0.407008
      vertex 0.015 -0.203368 -0.459273
    endloop
  endfacet
  facet normal 1 -0 0
    outer loop
      vertex 0.015 -0.371572 0.332065
      vertex 0.015 -0.293893 -0.407008
      vertex 0.015 -0.293893 0.402009
    endloop
  endfacet
  facet normal 1 0 0
    outer loop
      vertex 0.015 -0.371572 0.332065
      vertex 0.015 -0.371572 -0.337065
      vertex 0.015 -0.293893 -0.407008
    endloop
  endfacet
  facet normal 1 -0 0
    outer loop
      vertex 0.015 -0.433013 0.2475
      vertex 0.015 -0.371572 -0.337065
      vertex 0.015 -0.371572 0.332065
    endloop
  endfacet
  facet normal 1 0 0
    outer loop
      vertex 0.015 -0.433013 0.2475
      vertex 0.015 -0.433013 -0.2525
      vertex 0.015 -0.371572 -0.337065
    endloop
  endfacet
  facet normal 1 -0 0
    outer loop
      vertex 0.015 -0.475528 0.152009
      vertex 0.015 -0.433013 -0.2525
      vertex 0.015 -0.433013 0.2475
    endloop
  endfacet
  facet normal 1 0 0
    outer loop
      vertex 0.015 -0.475528 0.152009
      vertex 0.015 -0.475528 -0.157008
      vertex 0.015 -0.433013 -0.2525
    endloop
  endfacet
  facet normal 1 -0 0
    outer loop
      vertex 0.015 -0.497261 0.0497642
      vertex 0.015 -0.475528 -0.157008
      vertex 0.015 -0.475528 0.152009
    endloop
  endfacet
  facet normal 1 0 0
    outer loop
      vertex 0.015 -0.475528 -0.157008
      vertex 0.015 -0.497261 0.0497642
      vertex 0.015 -0.497261 -0.0547642
    endloop
  endfacet
endsolid OpenSCAD_Model
